<svg width="224" height="58" viewBox="0 0 224 58" fill="none" xmlns="http://www.w3.org/2000/svg">
<path d="M43.9223 39.9086C45.9853 39.9086 48.1232 39.7961 50.2987 39.6086C49.4735 42.1967 48.2733 44.5222 46.8105 46.6226C46.2103 47.5228 45.6477 48.198 45.6477 48.198C44.86 49.1357 44.0348 50.0359 43.1721 50.8236C42.5345 51.4237 41.5593 52.2114 41.5593 52.2114C37.1708 55.6622 31.8446 57.5751 26.6309 57.5751H1.87542C0.862693 57.5751 0 56.7499 0 55.6997V40.3212C2.36303 45.7224 7.31413 49.2482 15.0034 49.2482H25.5807C28.5814 49.2482 31.2445 48.3855 33.57 46.9977C34.4702 46.5101 35.2954 45.835 35.2954 45.835C36.7207 44.7472 37.9585 43.4719 39.0087 42.0841C39.0087 42.0841 39.0087 42.0466 39.0462 42.0466C39.4963 41.484 40.209 40.3963 40.209 40.3963C40.3215 40.2087 40.434 40.0212 40.5466 39.8336C41.6718 39.8711 42.7971 39.9086 43.9223 39.9086Z" fill="url(#paint0_linear_10_32)"/>
<path d="M51.649 31.0942C51.649 32.4445 51.574 33.7573 51.3865 35.0326C48.4983 34.6575 45.6852 34.1699 43.0221 33.5697C43.2096 32.6695 43.2846 31.8068 43.2846 31.0192C43.2846 7.16384 22.58 1.50007 10.3523 3.71306C28.6564 -6.97682 51.649 6.41366 51.649 31.0942Z" fill="url(#paint1_linear_10_32)"/>
<path d="M55.4373 37.2456C53.862 37.4706 52.3616 37.6582 50.8613 37.8082C48.4608 38.0332 46.1352 38.1458 43.9598 38.1458C43.1346 38.1458 42.3094 38.1458 41.4842 38.1083C6.52639 36.758 0.0749512 7.08884 0.0749512 7.08884C0.0749512 6.22615 0.787609 5.51349 1.6503 5.51349H7.27656C8.13925 5.51349 8.85191 6.15113 8.92693 7.01382C15.6034 24.3052 27.1935 31.8444 42.5719 35.2951C45.2725 35.8953 48.1232 36.3829 51.0488 36.7955C52.5117 36.9455 53.937 37.0955 55.4373 37.2456Z" fill="url(#paint2_linear_10_32)"/>
<path d="M8.81456 46.3226C2.66318 43.4345 0.187631 37.8832 0.0375977 32.5945V5.51349H7.2017C8.1019 5.51349 8.81456 6.22615 8.81456 7.12635V46.3226Z" fill="url(#paint3_linear_10_32)"/>
<path d="M72.0911 44.5597V14.4779H85.7441C89.0073 14.4779 91.8955 15.1156 94.371 16.3534C96.8466 17.5911 98.797 19.354 100.222 21.567C101.61 23.8175 102.323 26.4431 102.323 29.5188C102.323 32.557 101.61 35.1826 100.222 37.4331C98.8345 39.6836 96.8841 41.4465 94.371 42.6842C91.8955 43.922 89.0073 44.5597 85.7441 44.5597H72.0911ZM79.0676 38.8584H85.444C87.432 38.8584 89.1949 38.4833 90.6577 37.7331C92.1205 36.983 93.2833 35.8952 94.1085 34.5074C94.9337 33.1196 95.3463 31.4692 95.3463 29.5563C95.3463 27.6434 94.9337 25.993 94.1085 24.6052C93.2833 23.2174 92.158 22.1296 90.6577 21.3795C89.1949 20.6293 87.432 20.2542 85.444 20.2542H79.0676V38.8584Z" fill="white"/>
<path d="M103.186 44.5597L116.576 14.4779H123.44L136.906 44.5597H129.591L118.601 18.0037H121.34L110.312 44.5597H103.186ZM109.9 38.1082L111.737 32.8195H127.191L129.066 38.1082H109.9Z" fill="white"/>
<path d="M153.634 21.1169C155.472 21.1169 157.123 21.492 158.548 22.2047C160.011 22.9173 161.136 24.0426 161.961 25.5429C162.786 27.0433 163.199 28.9562 163.199 31.3192V44.5597H156.485V32.3694C156.485 30.494 156.072 29.1437 155.247 28.2435C154.422 27.3433 153.259 26.8932 151.796 26.8932C150.746 26.8932 149.771 27.1183 148.946 27.5684C148.083 28.0185 147.445 28.6936 146.958 29.5938C146.47 30.494 146.245 31.6943 146.245 33.1196V44.5597H139.531V12.6776H146.245V27.8309L144.745 25.8805C145.57 24.3427 146.77 23.1424 148.308 22.3172C149.921 21.5295 151.684 21.1169 153.634 21.1169Z" fill="white"/>
<path d="M179.065 44.8972C177.152 44.8972 175.427 44.5221 173.926 43.772C172.426 43.0218 171.263 41.8966 170.438 40.3587C169.613 38.8209 169.2 36.8704 169.2 34.5074V21.4545H175.914V33.5322C175.914 35.4451 176.327 36.8704 177.152 37.7706C177.977 38.6708 179.103 39.1209 180.603 39.1209C181.653 39.1209 182.553 38.8959 183.341 38.4458C184.129 37.9957 184.766 37.3205 185.216 36.3828C185.666 35.4451 185.892 34.2824 185.892 32.8946V21.4545H192.606V44.5597H186.229V38.1832L187.392 40.0211C186.604 41.634 185.479 42.8343 183.979 43.6595C182.478 44.4846 180.828 44.8972 179.065 44.8972Z" fill="white"/>
<path d="M198.832 44.5597V12.6776H205.546V26.1431L205.133 32.9696L205.246 39.8336V44.5597H198.832ZM212.485 44.8973C210.459 44.8973 208.697 44.4847 207.234 43.622C205.771 42.7593 204.646 41.4465 203.896 39.6836C203.108 37.9207 202.733 35.7077 202.733 33.0071C202.733 30.269 203.145 28.056 203.971 26.2931C204.796 24.5302 205.921 23.2549 207.384 22.3922C208.847 21.5295 210.535 21.1169 212.485 21.1169C214.66 21.1169 216.611 21.6045 218.336 22.5798C220.062 23.555 221.449 24.9428 222.462 26.7057C223.475 28.4686 224 30.6066 224 33.0071C224 35.4076 223.475 37.5081 222.462 39.271C221.449 41.0339 220.062 42.4217 218.336 43.4344C216.611 44.4096 214.66 44.8973 212.485 44.8973ZM211.322 39.421C212.447 39.421 213.423 39.1585 214.323 38.6334C215.186 38.1082 215.898 37.3956 216.423 36.4204C216.948 35.4451 217.211 34.3199 217.211 33.0071C217.211 31.6568 216.948 30.5315 216.423 29.5563C215.898 28.6186 215.186 27.8684 214.323 27.3808C213.46 26.8557 212.447 26.5932 211.322 26.5932C210.197 26.5932 209.184 26.8557 208.322 27.3808C207.421 27.906 206.746 28.6186 206.221 29.5563C205.696 30.494 205.433 31.6568 205.433 33.0071C205.433 34.3199 205.696 35.4451 206.221 36.4204C206.746 37.3956 207.421 38.1082 208.322 38.6334C209.184 39.1585 210.197 39.421 211.322 39.421Z" fill="white"/>
<defs>
<linearGradient id="paint0_linear_10_32" x1="0.037921" y1="48.5993" x2="50.3335" y2="48.5993" gradientUnits="userSpaceOnUse">
<stop stop-color="#007FFF"/>
<stop offset="1" stop-color="#1260C4"/>
</linearGradient>
<linearGradient id="paint1_linear_10_32" x1="10.3385" y1="17.5193" x2="51.6438" y2="17.5193" gradientUnits="userSpaceOnUse">
<stop stop-color="#007FFF"/>
<stop offset="1" stop-color="#1260C4"/>
</linearGradient>
<linearGradient id="paint2_linear_10_32" x1="0.0509833" y1="21.8284" x2="55.4215" y2="21.8284" gradientUnits="userSpaceOnUse">
<stop stop-color="#007FFF"/>
<stop offset="1" stop-color="#1260C4"/>
</linearGradient>
<linearGradient id="paint3_linear_10_32" x1="0.0387229" y1="25.9057" x2="8.81122" y2="25.9057" gradientUnits="userSpaceOnUse">
<stop stop-color="#007FFF"/>
<stop offset="1" stop-color="#1260C4"/>
</linearGradient>
</defs>
</svg>
