<svg width="41" height="37" viewBox="0 0 41 37" fill="none" xmlns="http://www.w3.org/2000/svg">
<path d="M1.05371 36.2269C0.746114 36.121 0.479254 35.9216 0.29036 35.6567C0.101466 35.3917 -4.09779e-05 35.0744 1.24096e-08 34.749C1.24096e-08 27.6081 1.43359 21.8974 4.2627 17.7741C7.68066 12.7922 13.0723 10.1097 20.3125 9.77662V1.9266C20.3125 1.62055 20.4024 1.32125 20.5709 1.06582C20.7394 0.810383 20.9792 0.610062 21.2605 0.489705C21.5418 0.369348 21.8523 0.334251 22.1533 0.388768C22.4544 0.443284 22.7328 0.585016 22.9541 0.79638L40.1416 17.2076C40.2943 17.3535 40.4159 17.5289 40.499 17.7232C40.582 17.9174 40.6249 18.1265 40.6249 18.3378C40.6249 18.5491 40.582 18.7582 40.499 18.9524C40.4159 19.1467 40.2943 19.3221 40.1416 19.468L22.9541 35.8792C22.7328 36.0905 22.4544 36.2323 22.1533 36.2868C21.8523 36.3413 21.5418 36.3062 21.2605 36.1859C20.9792 36.0655 20.7394 35.8652 20.5709 35.6097C20.4024 35.3543 20.3125 35.055 20.3125 34.749V26.9566C15.918 27.0894 12.5977 27.8016 9.9541 29.1682C7.09765 30.6452 5.02637 32.8519 2.79395 35.7131C2.59367 35.9696 2.31834 36.1572 2.00637 36.2497C1.6944 36.3421 1.36136 36.3349 1.05371 36.2289V36.2269Z" fill="#007FFF"/>
</svg>
